<?xml version="1.0" encoding="UTF-8"?>
<svg id="_레이어_2" data-name="레이어 2" xmlns="http://www.w3.org/2000/svg" viewBox="0 0 100.43 78.95">
  <defs>
    <style>
      .cls-1 {
        fill: #004ac1;
      }

      .cls-2 {
        fill: #0059db;
      }
    </style>
  </defs>
  <g id="Layer_1" data-name="Layer 1">
    <g>
      <path class="cls-1" d="m27.7,78.95c-3.99,0-7.51-2.62-8.64-6.45L.3,9.16C-1.06,4.59,2.37,0,7.14,0h32.42c4.67,0,8.08,4.42,6.9,8.94l-10.85,41.42c-.74,2.82,1.39,5.58,4.31,5.58h1.23s0,23.01,0,23.01h-13.44Z"/>
      <path class="cls-2" d="m54.65,5.29l-5.7,21.36c-.56,2.09.46,4.27,2.42,5.18l9.12,4.25c3.23,1.5,3.47,5.99.43,7.84l-19.78,12.01-6.14,23.01h37.72c3.99,0,7.51-2.62,8.64-6.45l18.77-63.34c1.35-4.57-2.07-9.16-6.84-9.16h-31.75c-3.23,0-6.06,2.17-6.89,5.29Z"/>
    </g>
  </g>
</svg>