<?xml version="1.0" encoding="UTF-8"?>
<svg id="_레이어_2" data-name="레이어 2" xmlns="http://www.w3.org/2000/svg" viewBox="0 0 374.87 78.95">
  <defs>
    <style>
      .cls-1 {
        fill: #fff;
      }

      .cls-2 {
        fill: #004ac1;
      }

      .cls-3 {
        fill: #0059db;
      }
    </style>
  </defs>
  <g id="Layer_1" data-name="Layer 1">
    <g>
      <g>
        <path class="cls-2" d="m27.7,78.95c-3.99,0-7.51-2.62-8.64-6.45L.3,9.16C-1.06,4.59,2.37,0,7.14,0h32.42c4.67,0,8.08,4.42,6.9,8.94l-10.85,41.42c-.74,2.82,1.39,5.58,4.31,5.58h1.23s0,23.01,0,23.01h-13.44Z"/>
        <path class="cls-3" d="m54.65,5.29l-5.7,21.36c-.56,2.09.46,4.27,2.42,5.18l9.12,4.25c3.23,1.5,3.47,5.99.43,7.84l-19.78,12.01-6.14,23.01h37.72c3.99,0,7.51-2.62,8.64-6.45l18.77-63.34c1.35-4.57-2.07-9.16-6.84-9.16h-31.75c-3.23,0-6.06,2.17-6.89,5.29Z"/>
      </g>
      <g>
        <path class="cls-1" d="m143.19,54.81l12.74-36.66h9.88l-17.14,44.98h-11.1l-17.06-44.98h9.96l12.74,36.66Z"/>
        <path class="cls-1" d="m182.13,2.72v60.41h-9.31V2.72h9.31Z"/>
        <path class="cls-1" d="m194.08,28.44c1.88-3.48,4.44-6.19,7.67-8.12,3.24-1.93,6.82-2.9,10.74-2.9,3.54,0,6.63.69,9.27,2.08,2.64,1.39,4.75,3.12,6.33,5.18v-6.53h9.39v44.98h-9.39v-6.69c-1.58,2.12-3.73,3.89-6.45,5.31-2.72,1.41-5.82,2.12-9.31,2.12-3.86,0-7.4-.99-10.61-2.98-3.21-1.99-5.76-4.76-7.63-8.33-1.88-3.56-2.82-7.6-2.82-12.12s.94-8.52,2.82-12Zm32.08,4.08c-1.28-2.29-2.95-4.03-5.02-5.22-2.07-1.2-4.3-1.8-6.69-1.8s-4.63.59-6.69,1.76c-2.07,1.17-3.74,2.89-5.02,5.14-1.28,2.26-1.92,4.94-1.92,8.04s.64,5.82,1.92,8.16c1.28,2.34,2.97,4.12,5.06,5.35,2.09,1.22,4.31,1.84,6.65,1.84s4.62-.6,6.69-1.8c2.07-1.2,3.74-2.95,5.02-5.27,1.28-2.31,1.92-5.02,1.92-8.12s-.64-5.8-1.92-8.08Z"/>
        <path class="cls-1" d="m281.93,19.62c2.8,1.47,4.99,3.65,6.57,6.53,1.58,2.89,2.37,6.37,2.37,10.45v26.53h-9.23v-25.14c0-4.03-1.01-7.12-3.02-9.27-2.01-2.15-4.76-3.22-8.25-3.22s-6.25,1.08-8.29,3.22c-2.04,2.15-3.06,5.24-3.06,9.27v25.14h-9.31V18.15h9.31v5.14c1.52-1.85,3.47-3.29,5.84-4.33,2.37-1.03,4.88-1.55,7.55-1.55,3.54,0,6.71.73,9.51,2.2Z"/>
        <path class="cls-1" d="m343.6,44.11h-34.37c.27,3.59,1.6,6.48,4,8.65,2.39,2.18,5.33,3.27,8.82,3.27,5.01,0,8.54-2.09,10.61-6.29h10.04c-1.36,4.14-3.82,7.52-7.39,10.16-3.57,2.64-7.99,3.96-13.27,3.96-4.3,0-8.15-.96-11.55-2.9-3.4-1.93-6.07-4.65-8-8.16-1.93-3.51-2.9-7.58-2.9-12.21s.94-8.69,2.82-12.2c1.88-3.51,4.52-6.22,7.92-8.12,3.4-1.9,7.31-2.86,11.72-2.86s8.03.93,11.35,2.78c3.32,1.85,5.9,4.45,7.76,7.8,1.85,3.35,2.78,7.2,2.78,11.55,0,1.69-.11,3.21-.33,4.57Zm-9.39-7.51c-.06-3.43-1.28-6.18-3.67-8.25-2.4-2.07-5.36-3.1-8.9-3.1-3.21,0-5.96,1.02-8.25,3.06-2.29,2.04-3.65,4.8-4.08,8.29h24.9Z"/>
        <path class="cls-1" d="m363.93,25.74v24.9c0,1.69.39,2.9,1.18,3.63.79.73,2.14,1.1,4.04,1.1h5.71v7.76h-7.35c-4.19,0-7.4-.98-9.63-2.94-2.23-1.96-3.35-5.14-3.35-9.55v-24.9h-5.31v-7.59h5.31V6.97h9.39v11.18h10.94v7.59h-10.94Z"/>
      </g>
    </g>
  </g>
</svg>